<svg width="124" height="138" viewBox="0 0 124 138" fill="none" xmlns="http://www.w3.org/2000/svg">
<path d="M105.844 31.9704C95.0912 21.1973 81.0839 14.8725 66.0435 13.9086V8.08594H71.974C74.207 8.08594 76.0174 6.27577 76.0174 4.04297C76.0174 1.81017 74.207 0 71.974 0H52.026C49.793 0 47.9825 1.81017 47.9825 4.04297C47.9825 6.27577 49.793 8.08594 52.026 8.08594H57.9565V13.9086C47.6437 14.5695 37.8177 17.7513 29.193 23.16L25.3519 19.3116C23.4825 17.4387 20.9957 16.4074 18.3494 16.4074C15.7031 16.4074 13.2163 17.4389 11.3471 19.3116L5.50535 25.1653C1.65999 29.0177 1.65999 35.2865 5.50535 39.1392L9.37255 43.014C3.26876 52.7793 0 64.0813 0 75.8876C0 92.4767 6.44803 108.074 18.1564 119.805C29.8669 131.538 45.4376 138 62 138C78.5624 138 94.1331 131.538 105.844 119.805C117.552 108.074 124 92.4767 124 75.8876C124 59.2985 117.552 43.7015 105.844 31.9704ZM11.2296 30.8772L17.0716 25.0238C17.5321 24.5627 18.0698 24.4937 18.3497 24.4937C18.6295 24.4937 19.1675 24.5624 19.6279 25.0238L22.5581 27.9596C21.0386 29.2191 19.5689 30.5557 18.1566 31.9707C16.7484 33.3817 15.4181 34.8498 14.1644 36.3679L11.2296 33.4275C10.5276 32.7243 10.5276 31.5802 11.2296 30.8772ZM62 129.914C32.2722 129.914 8.08699 105.678 8.08699 75.8876C8.08699 46.0974 32.2722 21.8611 62 21.8611C91.7278 21.8611 115.913 46.0971 115.913 75.8876C115.913 105.678 91.7278 129.914 62 129.914Z" fill="#A8ADC6"/>
<path d="M62 29.4398C36.4338 29.4398 15.6343 50.2762 15.6343 75.8876C15.6343 101.499 36.4338 122.335 62 122.335C87.5662 122.335 108.366 101.499 108.366 75.8876C108.366 50.2762 87.5662 29.4398 62 29.4398ZM66.0435 114.035V109.31C66.0435 107.077 64.2331 105.267 62 105.267C59.7669 105.267 57.9565 107.077 57.9565 109.31V114.035C40.0692 112.145 25.8161 97.8579 23.9337 79.9306H28.5738C30.8069 79.9306 32.6173 78.1204 32.6173 75.8876C32.6173 73.6548 30.8069 71.8446 28.5738 71.8446H23.934C25.8161 53.9173 40.0692 39.6305 57.9565 37.7398V42.4655C57.9565 44.6983 59.7669 46.5084 62 46.5084C64.2331 46.5084 66.0435 44.6983 66.0435 42.4655V37.7398C83.9308 39.6305 98.1839 53.9173 100.066 71.8446H95.4262C93.1932 71.8446 91.3827 73.6548 91.3827 75.8876C91.3827 78.1204 93.1932 79.9306 95.4262 79.9306H100.066C98.1839 97.8579 83.9308 112.145 66.0435 114.035Z" fill="#A8ADC6"/>
<path d="M71.974 73.5543H66.2694V57.2026C66.2694 54.9698 64.459 53.1596 62.2259 53.1596C59.9928 53.1596 58.1824 54.9698 58.1824 57.2026V77.5972C58.1824 79.83 59.9928 81.6402 62.2259 81.6402H71.974C74.207 81.6402 76.0174 79.83 76.0174 77.5972C76.0174 75.3644 74.207 73.5543 71.974 73.5543Z" fill="#A8ADC6"/>
</svg>
