<svg width="234" height="261" viewBox="0 0 234 261" fill="none" xmlns="http://www.w3.org/2000/svg">
<path d="M234 143.5C234 208.393 181.617 261 117 261C52.3827 261 0 208.393 0 143.5C0 78.6065 52.3827 26 117 26C181.617 26 234 78.6065 234 143.5Z" fill="#A8ADC6"/>
<path d="M84 10C84 4.47715 88.4772 0 94 0H141C146.523 0 151 4.47715 151 10V51C151 56.5229 146.523 61 141 61H94C88.4772 61 84 56.5228 84 51V10Z" fill="#A8ADC6"/>
<path d="M165.334 72.2746C160.985 68.8705 160.219 62.5854 163.623 58.2363L185.034 30.8808C188.438 26.5317 194.723 25.7656 199.072 29.1697L215.808 42.2686C220.157 45.6727 220.923 51.9578 217.519 56.3068L196.107 83.6624C192.703 88.0115 186.418 88.7776 182.069 85.3735L165.334 72.2746Z" fill="#A8ADC6"/>
<ellipse cx="117" cy="143.5" rx="106" ry="106.5" fill="white"/>
</svg>
